<?xml version="1.0" encoding="UTF-8" standalone="no"?>
<!-- Created with Inkscape (http://www.inkscape.org/) -->

<svg
   xmlns:dc="http://purl.org/dc/elements/1.1/"
   xmlns:cc="http://creativecommons.org/ns#"
   xmlns:rdf="http://www.w3.org/1999/02/22-rdf-syntax-ns#"
   xmlns:svg="http://www.w3.org/2000/svg"
   xmlns="http://www.w3.org/2000/svg"
   xmlns:xlink="http://www.w3.org/1999/xlink"
   xmlns:sodipodi="http://sodipodi.sourceforge.net/DTD/sodipodi-0.dtd"
   xmlns:inkscape="http://www.inkscape.org/namespaces/inkscape"
   width="85mm"
   height="55mm"
   viewBox="0 0 85 55"
   version="1.1"
   id="svg847"
   inkscape:version="0.92.2 (5c3e80d, 2017-08-06)"
   sodipodi:docname="Logo.svg">
  <defs
     id="defs841">
    <linearGradient
       inkscape:collect="always"
       id="linearGradient1460">
      <stop
         style="stop-color:#b90000;stop-opacity:1;"
         offset="0"
         id="stop1456" />
      <stop
         style="stop-color:#b90000;stop-opacity:0;"
         offset="1"
         id="stop1458" />
    </linearGradient>
    <linearGradient
       inkscape:collect="always"
       xlink:href="#linearGradient1460"
       id="linearGradient1462"
       x1="39.744381"
       y1="293.5629"
       x2="38.885704"
       y2="264.15527"
       gradientUnits="userSpaceOnUse" />
  </defs>
  <sodipodi:namedview
     id="base"
     pagecolor="#ffffff"
     bordercolor="#666666"
     borderopacity="1.0"
     inkscape:pageopacity="0.0"
     inkscape:pageshadow="2"
     inkscape:zoom="1.979899"
     inkscape:cx="158.26752"
     inkscape:cy="112.72419"
     inkscape:document-units="mm"
     inkscape:current-layer="layer1"
     showgrid="false" />
  <metadata
     id="metadata844">
    <rdf:RDF>
      <cc:Work
         rdf:about="">
        <dc:format>image/svg+xml</dc:format>
        <dc:type
           rdf:resource="http://purl.org/dc/dcmitype/StillImage" />
        <dc:title></dc:title>
      </cc:Work>
    </rdf:RDF>
  </metadata>
  <g
     inkscape:label="Capa 1"
     inkscape:groupmode="layer"
     id="layer1"
     transform="translate(0,-242)">
    <g
       id="g1621"
       transform="matrix(1.0473386,0,0,1.0852905,-2.1545283,-23.345189)"
       style="stroke-width:0.93795812">
      <text
         xml:space="preserve"
         style="font-style:normal;font-weight:normal;font-size:27.90422058px;line-height:1.25;font-family:sans-serif;letter-spacing:0px;word-spacing:0px;fill:#2b0000;fill-opacity:1;stroke:#002a2a;stroke-width:1.12554979;stroke-linecap:round;stroke-linejoin:round;stroke-miterlimit:4;stroke-dasharray:none;stroke-dashoffset:0;stroke-opacity:1;paint-order:fill markers stroke"
         x="3.2524149"
         y="312.65982"
         id="text1509"
         transform="scale(1.1143406,0.89739168)"><tspan
           sodipodi:role="line"
           id="tspan1507"
           x="3.2524149"
           y="312.65982"
           style="font-style:normal;font-variant:normal;font-weight:normal;font-stretch:normal;font-family:'Extra Sales Blank';-inkscape-font-specification:'Extra Sales Blank';fill:#2b0000;fill-opacity:1;stroke:#002a2a;stroke-width:1.12554979;stroke-linecap:round;stroke-linejoin:round;stroke-miterlimit:4;stroke-dasharray:none;stroke-dashoffset:0;stroke-opacity:1;paint-order:fill markers stroke">DRG</tspan></text>
      <text
         transform="scale(1.1143406,0.89739168)"
         id="text851"
         y="312.65982"
         x="3.2524149"
         style="font-style:normal;font-weight:normal;font-size:27.90422058px;line-height:1.25;font-family:sans-serif;letter-spacing:0px;word-spacing:0px;fill:#800000;fill-opacity:1;stroke:none;stroke-width:0.24816804"
         xml:space="preserve"><tspan
           style="font-style:normal;font-variant:normal;font-weight:normal;font-stretch:normal;font-family:'Extra Sales Blank';-inkscape-font-specification:'Extra Sales Blank';fill:#800000;fill-opacity:1;stroke-width:0.24816804"
           y="312.65982"
           x="3.2524149"
           id="tspan849"
           sodipodi:role="line">DRG</tspan></text>
      <flowRoot
         style="font-style:normal;font-weight:normal;font-size:40px;line-height:1.25;font-family:sans-serif;letter-spacing:0px;word-spacing:0px;fill:#000000;fill-opacity:1;stroke:none;stroke-width:0.93795812"
         id="flowRoot853"
         xml:space="preserve"><flowRegion
           id="flowRegion855"
           style="stroke-width:0.93795812"><rect
             y="27.561779"
             x="44.446712"
             height="138.89598"
             width="230.31477"
             id="rect857"
             style="stroke-width:0.93795812" /></flowRegion><flowPara
           id="flowPara859"
           style="stroke-width:0.93795812"></flowPara></flowRoot>      <flowRoot
         style="font-style:normal;font-weight:normal;font-size:40px;line-height:1.25;font-family:sans-serif;letter-spacing:0px;word-spacing:0px;fill:#000000;fill-opacity:1;stroke:none;stroke-width:0.93795812"
         id="flowRoot861"
         xml:space="preserve"><flowRegion
           id="flowRegion863"
           style="stroke-width:0.93795812"><rect
             y="40.188686"
             x="0.50507629"
             height="123.74369"
             width="277.28687"
             id="rect865"
             style="stroke-width:0.93795812" /></flowRegion><flowPara
           id="flowPara867"
           style="stroke-width:0.93795812"></flowPara></flowRoot>      <flowRoot
         style="font-style:normal;font-weight:normal;font-size:40px;line-height:1.25;font-family:sans-serif;letter-spacing:0px;word-spacing:0px;fill:#000000;fill-opacity:1;stroke:none;stroke-width:0.93795812"
         id="flowRoot869"
         xml:space="preserve"><flowRegion
           id="flowRegion871"
           style="stroke-width:0.93795812"><rect
             y="6.3485751"
             x="9.5964489"
             height="183.34268"
             width="307.08636"
             id="rect873"
             style="stroke-width:0.93795812" /></flowRegion><flowPara
           id="flowPara875"
           style="stroke-width:0.93795812"></flowPara></flowRoot>      <flowRoot
         style="font-style:normal;font-variant:normal;font-weight:normal;font-stretch:normal;font-size:40px;line-height:1.25;font-family:'SEGA LOGO FONT';-inkscape-font-specification:'SEGA LOGO FONT';letter-spacing:0px;word-spacing:0px;fill:#000000;fill-opacity:1;stroke:none;stroke-width:0.93795812"
         id="flowRoot877"
         xml:space="preserve"><flowRegion
           style="font-style:normal;font-variant:normal;font-weight:normal;font-stretch:normal;font-family:'SEGA LOGO FONT';-inkscape-font-specification:'SEGA LOGO FONT';stroke-width:0.93795812"
           id="flowRegion879"><rect
             style="font-style:normal;font-variant:normal;font-weight:normal;font-stretch:normal;font-family:'SEGA LOGO FONT';-inkscape-font-specification:'SEGA LOGO FONT';stroke-width:0.93795812"
             y="12.409491"
             x="11.111678"
             height="175.26146"
             width="304.561"
             id="rect881" /></flowRegion><flowPara
           id="flowPara883"
           style="stroke-width:0.93795812"></flowPara></flowRoot>      <path
         d="m 71.949219,247.01562 c -0.233612,0.38739 -0.480599,0.79807 -0.833985,1.41993 -0.89799,1.5802 -2.17457,3.90624 -3.828125,6.97265 a 0.75811409,0.75811409 0 0 1 -0.667968,0.39844 h -0.257813 a 0.75811409,0.75811409 0 0 1 -0.691406,-0.44922 c -0.0067,-0.01 -0.01301,-0.0197 -0.0332,-0.0469 -0.05525,-0.0742 -0.153607,-0.19413 -0.285157,-0.34961 -0.263099,-0.31096 -0.664218,-0.76352 -1.197265,-1.34766 -0.774533,-0.84878 -2.141866,-2.29454 -3.472656,-3.70312 v 3.79296 c 0,0.69754 0.04049,1.80023 0.121093,3.28516 a 0.75811409,0.75811409 0 0 1 -1.234375,0.63086 l -2.373047,-1.92187 c -0.0015,0.003 -0.0024,0.005 -0.0039,0.008 -0.221382,0.45619 -0.537757,1.04538 -0.947265,1.77148 a 0.75811409,0.75811409 0 0 1 -1.363282,-0.0898 l -3.300781,-8.21289 c -2.657987,2.09445 -4.862068,3.84737 -6.246094,4.97851 -0.758132,0.61962 -1.325651,1.09484 -1.693359,1.41797 -0.183854,0.16157 -0.319279,0.2879 -0.392578,0.36133 -0.02066,0.0207 -0.02044,0.0215 -0.0293,0.0312 a 0.75811409,0.75811409 0 0 1 -1.130859,0.19727 l -4.957032,-4.07032 v 5.35547 a 0.75811409,0.75811409 0 0 1 -1.242187,0.58203 l -3.722656,-3.09375 c -0.07148,0.13014 -0.12146,0.22702 -0.212891,0.38672 -0.383802,0.67037 -0.944938,1.60696 -1.679687,2.80274 a 0.75811409,0.75811409 0 0 1 -1.267579,0.0371 c -0.649354,-0.9294 -1.146402,-1.65271 -1.486328,-2.16407 -0.0037,-0.006 -0.0042,-0.008 -0.0078,-0.0137 -0.255569,0.39445 -0.574435,0.879 -1.029297,1.56446 a 0.75811409,0.75811409 0 0 1 -1.171875,0.11132 l -10.378906,-10.53906 -2.263672,9.55859 a 0.75811409,0.75811409 0 0 1 -1.183594,0.43946 l -4.65625,-3.375 c -0.8980238,1.49378 -1.685392,2.81586 -2.1640625,3.64453 -0.2773141,0.48008 -0.4850351,0.84959 -0.6171875,1.09766 -0.057557,0.10803 -0.094848,0.18131 -0.1210938,0.23632 v 3.28516 c 0.585428,0.54591 1.386939,1.0663 2.1464844,1.5918 l -0.3027344,-3.07032 a 0.75811409,0.75811409 0 0 1 0.5761719,-0.81054 c 2.0797419,-0.50245 4.1546939,-0.75586 6.2207029,-0.75586 h 1.492188 l 0.597656,-0.0899 a 0.75811409,0.75811409 0 0 1 0.369141,0.0371 0.75811409,0.75811409 0 0 1 0.40039,-0.0312 l 0.306641,0.0566 0.05859,-0.0215 a 0.75811409,0.75811409 0 0 1 0.267578,-0.0488 c 0.08296,0 0.212471,0.0702 0.328125,0.10938 4.019735,0.032 7.206983,0.95222 9.443359,2.875 a 0.75811409,0.75811409 0 0 1 0.06836,0.0644 c 2.008698,2.21771 3.019531,5.02629 3.019531,8.28516 0,0.25584 -0.03931,0.49837 -0.05859,0.74804 0.752832,0.10043 1.51435,0.19116 2.28125,0.27539 -0.01115,-0.27119 -0.0332,-0.59555 -0.0332,-0.81445 v -3.31836 l -0.01953,-0.0312 a 0.75811409,0.75811409 0 0 1 0.0059,-0.76758 c -0.0636,-1.36161 -0.107422,-2.52214 -0.107422,-3.24414 v -0.62304 a 0.75811409,0.75811409 0 0 1 0.451172,-0.69336 c 4.290872,-1.90219 8.4758,-2.86524 12.542969,-2.86524 0.576599,0 1.161446,0.0332 1.755859,0.10156 a 0.75811409,0.75811409 0 0 1 0.01563,0.002 c 2.676425,0.362 4.721155,0.92482 6.177735,1.77148 1.456579,0.84667 2.34375,2.09981 2.34375,3.55274 v 0.0976 c 0,1.46943 -0.868633,2.95115 -2.390626,4.56836 a 0.75811409,0.75811409 0 0 1 -0.09766,0.0879 c -1.064956,0.79825 -2.337448,1.60808 -3.634765,2.42188 0.08575,0.0649 0.1557,0.10634 0.25,0.18164 0.03512,0.0238 0.07105,0.0473 0.105468,0.0703 2.98431,-0.14596 5.915219,-0.42227 8.748047,-0.80273 0.115319,-1.00649 0.284683,-2.07552 0.648438,-3.40235 a 0.75811409,0.75811409 0 0 1 0.02539,-0.0762 c 1.057906,-2.68491 2.82564,-4.74823 5.240235,-6.09375 a 0.75811409,0.75811409 0 0 1 0.0059,-0.002 c 3.531498,-1.93254 7.573698,-2.89453 12.083984,-2.89453 h 2.064454 a 0.75811409,0.75811409 0 0 1 0.71875,0.99609 c -0.589532,1.77241 -0.871094,3.29123 -0.871094,4.53125 v 1.14844 a 0.75811409,0.75811409 0 0 1 -0.0078,0.10742 c 1.675111,-0.87437 3.148519,-1.79329 4.291016,-2.75781 v -4.375 c -0.06032,-0.10412 -0.123769,-0.22366 -0.197266,-0.37305 -0.148514,-0.30187 -0.33741,-0.71926 -0.576171,-1.26172 -0.385747,-0.87641 -0.985234,-2.31262 -1.621094,-3.84375 l -2.302735,1.79102 a 0.75811409,0.75811409 0 0 1 -0.464843,0.16015 h -0.136719 a 0.75811409,0.75811409 0 0 1 -0.734375,-0.57226 c -0.0045,-0.0118 -0.01237,-0.0295 -0.02734,-0.0645 -0.0363,-0.0848 -0.09798,-0.22079 -0.18164,-0.39843 -0.167331,-0.35528 -0.423837,-0.88101 -0.765626,-1.57032 -0.553738,-1.11675 -1.491095,-2.96969 -2.496093,-4.94922 z m -56.40625,18.86524 c -0.225658,0 -0.561428,0.0336 -0.857422,0.0547 0.06605,0.62114 0.128827,1.24523 0.179687,1.87695 1.787501,0.60237 3.74985,1.12852 5.789063,1.60938 -0.185166,-0.72356 -0.377304,-1.44623 -0.607422,-1.82422 -0.713491,-1.09823 -2.10439,-1.7168 -4.503906,-1.7168 z m 59.578125,0 c -2.822251,0 -5.002013,0.42955 -6.535156,1.21484 -0.970015,0.49686 -1.613625,1.17747 -2.121094,1.95703 a 0.75811409,0.75811409 0 0 1 0.01758,-0.004 c 0.253361,-0.0465 0.637874,-0.10261 1.091797,-0.16602 3.154004,-0.84997 5.974554,-1.87045 8.376953,-3.00195 z m -31.914063,0.20898 c -0.223322,0 -1.16472,0.2817 -2.146484,0.61328 0.03598,0.74964 0.08665,1.19067 0.154297,1.53126 0.88198,-0.40624 1.799998,-0.82184 2.271484,-1.14649 0.654384,-0.45059 0.769531,-0.79394 0.769531,-0.73047 0,-0.1666 0.0023,-0.12321 -0.04102,-0.1543 -0.04333,-0.0311 -0.243647,-0.11328 -0.628906,-0.11328 z"
         id="text1466"
         style="font-style:normal;font-weight:normal;font-size:30.13289261px;line-height:1.25;font-family:sans-serif;letter-spacing:0px;word-spacing:0px;fill:#d40000;fill-opacity:1;stroke:none;stroke-width:0.24816807"
         inkscape:original="M 72.039062 245.51172 C 71.735403 245.73181 69.929038 248.91084 66.619141 255.04883 L 66.361328 255.04883 C 66.310718 254.80429 64.164946 252.45294 59.923828 247.99414 L 59.923828 253.70312 C 59.923828 254.4286 59.963949 255.5376 60.044922 257.0293 L 56.962891 254.53516 L 56.826172 254.53516 C 56.826172 254.78552 56.394464 255.66646 55.583984 257.10352 L 51.966797 248.10352 L 51.708984 248.10352 C 45.615535 252.89653 42.568359 255.38675 42.568359 255.57422 L 36.373047 250.48828 L 36.373047 257.44531 L 32.001953 253.8125 L 31.865234 253.8125 C 31.865234 253.99626 31.092118 255.34206 29.626953 257.72656 C 28.331764 255.87281 27.644531 254.8412 27.644531 254.74219 L 27.386719 254.74219 C 27.386719 254.79109 26.873886 255.58635 25.851562 257.12695 L 14.509766 245.60938 L 11.929688 256.50391 L 6.7832031 252.77344 L 6.5234375 252.77344 C 4.2864738 256.48232 3.1679688 258.41901 3.1679688 258.58203 L 3.1679688 262.38086 A 42.721994 16.151044 0 0 0 6.9921875 265.2168 L 6.5234375 260.45312 C 8.5478389 259.96404 10.562248 259.71875 12.566406 259.71875 L 14.115234 259.71875 L 14.767578 259.62109 C 14.767578 259.68629 14.809661 259.71875 14.890625 259.71875 C 14.981725 259.71875 15.113082 259.68629 15.285156 259.62109 L 15.800781 259.71875 L 16.058594 259.62109 C 16.139574 259.62109 16.181641 259.65355 16.181641 259.71875 C 20.189956 259.71875 23.240681 260.62043 25.335938 262.42188 C 27.218629 264.50047 28.160156 267.09161 28.160156 270.19727 C 28.160156 270.68212 28.122204 271.1534 28.048828 271.61133 A 42.721994 16.151044 0 0 0 31.933594 272.08008 C 31.893024 271.42153 31.865234 270.83604 31.865234 270.40625 L 31.865234 266.88477 L 31.744141 266.67578 L 31.865234 266.67578 C 31.784254 265.04551 31.744141 263.8356 31.744141 263.04492 L 31.744141 262.42188 C 35.954898 260.55521 40.032884 259.62109 43.980469 259.62109 C 44.527057 259.62109 45.083559 259.65355 45.650391 259.71875 C 50.89359 260.42792 53.515625 261.95158 53.515625 264.29102 L 53.515625 264.38867 C 53.515625 265.53801 52.787649 266.88874 51.330078 268.4375 C 50.014217 269.42382 48.510689 270.42639 46.820312 271.44531 L 46.820312 271.55469 C 46.992387 271.55469 47.37741 271.79446 47.974609 272.27539 C 48.089805 272.35349 48.193679 272.42183 48.306641 272.49805 A 42.721994 16.151044 0 0 0 57.886719 271.61719 C 57.962419 270.55993 58.208748 269.26165 58.632812 267.71484 C 59.634892 265.17161 61.269781 263.26932 63.537109 262.00586 C 66.948227 260.1392 70.854738 259.20508 75.257812 259.20508 L 77.322266 259.20508 C 76.714944 261.03098 76.412109 262.62149 76.412109 263.97461 L 76.412109 265.12305 L 75.121094 265.12305 C 69.325572 265.12305 65.947782 266.85497 64.982422 270.31445 A 42.721994 16.151044 0 0 0 66.628906 269.92578 C 66.626706 269.88878 66.619141 269.81981 66.619141 269.79492 C 66.866939 269.74942 67.259942 269.68878 67.75 269.62109 A 42.721994 16.151044 0 0 0 82.210938 262.85352 L 82.210938 257.86133 C 82.038862 257.73906 81.093789 255.58952 79.373047 251.41602 L 76.291016 253.8125 L 76.154297 253.8125 C 76.154297 253.66577 74.782128 250.89978 72.039062 245.51172 z M 15.542969 265.12305 C 15.117845 265.12305 14.601462 265.1555 13.994141 265.2207 L 13.857422 265.2207 C 13.980551 266.26478 14.081079 267.32593 14.160156 268.40234 A 42.721994 16.151044 0 0 0 21.552734 270.45703 C 21.583784 270.26835 21.601562 270.08105 21.601562 269.89258 C 21.378878 268.71878 21.074089 267.8171 20.689453 267.18945 C 19.798716 265.81187 18.083592 265.12305 15.542969 265.12305 z M 43.207031 265.33203 C 42.670564 265.33203 41.683419 265.60425 40.246094 266.15039 C 40.246094 267.82142 40.371948 268.89798 40.625 269.37891 C 43.550258 268.16435 45.013672 267.15626 45.013672 266.35742 C 45.013672 265.67271 44.537405 265.33203 43.585938 265.33203 L 43.207031 265.33203 z "
         inkscape:radius="-0.75803828"
         sodipodi:type="inkscape:offset" />
      <ellipse
         ry="0.66817373"
         rx="0.06681738"
         cy="272.8121"
         cx="42.295403"
         id="path1486"
         style="fill:#ff0000;fill-rule:evenodd;stroke-width:0.24816807" />
    </g>
  </g>
</svg>
